<?xml version="1.0" encoding="UTF-8"?><!DOCTYPE svg PUBLIC "-//W3C//DTD SVG 1.1//EN" "http://www.w3.org/Graphics/SVG/1.1/DTD/svg11.dtd"><svg xmlns="http://www.w3.org/2000/svg" xmlns:xlink="http://www.w3.org/1999/xlink" height="512px" version="1.1" viewBox="0 0 512 512" width="512px" xml:space="preserve"><circle cx="256" cy="256" fill="#1DDD8F" r="256" id="Background"/><g id="Shadow"><ellipse cx="251.254" cy="392.431" opacity="0.12" rx="164.414" ry="13.777"/><path d="M508.186 211.792l-20.837-18.035-28.424 85.681L319.549 136.8l-17.563 6.569-47.812-42.505-1.069 4.357-5.625 1.071-4.421 3.148-3.617 8.104-1.99 21.499-72.794 103.047 144.031 145.681h166.825C498.672 349.276 512 304.196 512 256a257.61 257.61 0 0 0-3.814-44.208z" opacity="0.1"/></g><g id="Body"><path d="M298.428 252.363H186.399c-10.723 0-19.495 8.773-19.495 19.496v96.523c0 10.723 8.772 19.496 19.495 19.496h112.028c10.723 0 19.496-8.773 19.496-19.496v-96.523c.001-10.722-8.773-19.496-19.495-19.496z" fill="#DD5952"/><ellipse cx="302.69" cy="340.438" fill="#EC2227" rx="11.096" ry="10.321"/><g fill="#262626"><path d="M301.129 340.682c0 2.393-1.521 3.662-3.378 3.662-1.92 0-3.269-1.424-3.269-3.528 0-2.207 1.436-3.651 3.377-3.651 1.986-.001 3.27 1.453 3.27 3.517zm-5.644.113c0 1.485.842 2.816 2.32 2.816 1.489 0 2.33-1.311 2.33-2.889 0-1.382-.755-2.826-2.319-2.826-1.553 0-2.331 1.373-2.331 2.899z"/><path d="M302.352 337.277h3.916v.753h-2.977v2.311h2.751v.743h-2.751v3.146h-.939v-6.953z"/><path d="M307.609 337.277h3.916v.753h-2.977v2.311h2.751v.743h-2.751v3.146h-.939v-6.953z"/></g><path d="M313.794 340.438c0-4.876-3.722-8.95-8.72-10.031-3.82 1.124-6.67 5.491-6.67 10.718 0 4.137 1.786 7.736 4.424 9.617 6.089-.186 10.966-4.722 10.966-10.304z" fill="#191818" opacity="0.1"/><path fill="#EC2227" d="M199.015 312.282h89.062v62.634h-89.062z"/><ellipse cx="183.936" cy="340.438" fill="#3DB172" rx="11.095" ry="10.321"/><g fill="#232323"><path d="M184.001 340.33c0 2.393-1.521 3.662-3.377 3.662-1.921 0-3.27-1.424-3.27-3.527 0-2.207 1.436-3.652 3.377-3.652 1.986 0 3.27 1.455 3.27 3.517zm-5.644.113c0 1.486.842 2.816 2.321 2.816 1.489 0 2.331-1.311 2.331-2.889 0-1.382-.755-2.826-2.32-2.826-1.553.001-2.332 1.373-2.332 2.899z"/><path d="M185.224 343.879v-6.953h1.025l2.331 3.518c.539.815.96 1.548 1.306 2.26l.021-.01c-.086-.93-.107-1.775-.107-2.857v-2.91h.885v6.953h-.95l-2.309-3.527c-.507-.774-.993-1.568-1.36-2.321l-.032.011c.055.876.075 1.712.075 2.867v2.971h-.885z"/></g><path d="M195.032 340.438c0-5.124-4.018-9.362-9.279-10.171-3.442 1.502-5.934 5.881-5.934 11.057 0 3.876 1.403 7.3 3.552 9.408.188.01.375.027.565.027 6.128.001 11.096-4.62 11.096-10.321z" fill="#303030" opacity="0.2"/><path d="M273.095 319.223h-.484a2.012 2.012 0 0 0-2.007 2.006v43.579c0 1.104.902 2.007 2.007 2.007h.484a2.013 2.013 0 0 0 2.007-2.007v-43.579a2.012 2.012 0 0 0-2.007-2.006z" fill="#191818" opacity="0.5"/><path d="M272.852 324.097c-1.236 0-2.248.968-2.248 2.15v7.741c0 1.182 1.012 2.149 2.248 2.149 1.237 0 2.25-.968 2.25-2.149v-7.741c0-1.183-1.013-2.15-2.25-2.15z" fill="#FCEE23"/><path d="M272.852 337.858c-1.236 0-2.248.968-2.248 2.15v7.74c0 1.183 1.012 2.15 2.248 2.15 1.237 0 2.25-.968 2.25-2.15v-7.74c0-1.182-1.013-2.15-2.25-2.15z" fill="#019547"/><path d="M272.852 351.619c-1.236 0-2.248.969-2.248 2.15v7.741c0 1.183 1.012 2.15 2.248 2.15 1.237 0 2.25-.968 2.25-2.15v-7.741c0-1.181-1.013-2.15-2.25-2.15z" fill="#2075BC"/><path d="M301.363 286.525c-1.25-5.701.063-12.003 3.602-17.287l-.714-.479c-3.669 5.479-5.027 12.021-3.729 17.949 1.118 5.1 4.109 9.362 8.423 12.002l.449-.734c-4.111-2.515-6.964-6.582-8.031-11.451z" fill="#333"/><path d="M177.772 300.461l-.714-.479c4.441-6.633 6.26-14.395 4.864-20.764-.931-4.246-3.18-7.566-6.504-9.601l.449-.734c3.529 2.16 5.914 5.67 6.896 10.151 1.444 6.593-.421 14.604-4.991 21.427z" fill="#333"/><ellipse cx="204.222" cy="317.04" fill="#818285" rx="2.678" ry="3.077" transform="matrix(0.7071 0.7071 -0.7071 0.7071 283.9965 -51.548)"/><path fill="#595A5C" d="M206.669 317.533l.084-.878-4.978-.107-.084.879z"/><g><ellipse cx="281.63" cy="317.037" fill="#818285" rx="2.678" ry="3.078" transform="matrix(-0.1683 -0.9857 0.9857 -0.1683 16.5142 648.0078)"/><path fill="#595A5C" d="M279.919 315.221l-.576.667 4 2.966.576-.668z"/></g><g><ellipse cx="204.222" cy="371.226" fill="#818285" rx="2.678" ry="3.077" transform="matrix(0.7072 0.707 -0.707 0.7072 322.2593 -35.6925)"/><path fill="#595A5C" d="M206.669 371.72l.084-.878-4.978-.108-.084.879z"/></g><g><ellipse cx="281.63" cy="371.224" fill="#818285" rx="2.678" ry="3.077" transform="matrix(-0.1683 -0.9857 0.9857 -0.1683 -36.8994 711.314)"/><path fill="#595A5C" d="M279.919 369.407l-.576.667 4 2.966.576-.669z"/></g><g><ellipse cx="243.106" cy="286.592" fill="#4CD3D3" rx="18.492" ry="19.876"/><path d="M242.998 267.146a17.29 17.29 0 0 0-3.037.273c-1.85 2.813-13.744 22.271-.428 38.478 1.122.23 2.279.355 3.464.355 10.1 0 18.287-8.755 18.287-19.553 0-10.799-8.187-19.553-18.286-19.553z" fill="#1C1C1C" opacity="0.2"/><path d="M259.19 276.806c-8.547 7.141-23.053 7.369-32.433.511" fill="none"/><path d="M259.889 295.064c-8.726 7.292-23.717 7.393-33.517.227" fill="none"/><path d="M260.158 295.389a21.408 21.408 0 0 0 1.869-8.796c0-11.196-8.488-20.307-18.921-20.307-10.434 0-18.922 9.11-18.922 20.307 0 3.231.71 6.286 1.967 9.001l-.032.044c.025.019.053.033.078.052 3.115 6.64 9.522 11.209 16.91 11.209 7.493 0 13.982-4.698 17.044-11.493l.014-.011-.007-.006zm-17.47-2.785c6.712 0 13.388-1.971 18.476-5.87a20.578 20.578 0 0 1-1.714 8.124c-8.514 6.968-23.006 7.072-32.58.248a20.508 20.508 0 0 1-1.808-7.699c5.067 3.459 11.355 5.197 17.626 5.197zm-17.639-6.239a20.54 20.54 0 0 1 1.883-8.418c4.559 3.183 10.246 4.779 15.885 4.779 5.947 0 11.817-1.777 16.225-5.273a20.427 20.427 0 0 1 2.103 8.187c-9.668 7.841-25.721 8.176-36.096.725zm18.057-19.219c6.6 0 12.381 3.832 15.533 9.536-8.328 6.719-22.207 6.933-31.325.485 3.086-5.97 9.006-10.021 15.792-10.021zm0 38.892c-6.539 0-12.277-3.761-15.448-9.377 4.631 2.894 10.19 4.35 15.666 4.35 5.546 0 10.993-1.49 15.279-4.445-3.159 5.668-8.922 9.472-15.497 9.472z" fill="#333"/></g><path d="M298.428 252.363h-54.657v135.516h54.657c10.723 0 19.496-8.773 19.496-19.496V271.86c0-10.723-8.774-19.497-19.496-19.497z" fill="#191818" opacity="0.1"/></g><g id="Hand"><path d="M175.693 276.452c-4.921-4.208-13.137-2.672-18.35 3.429 0 0-37.053 42.002-36.893 42.139.159.136-4.808 7.404-1.162 13.296 3.646 5.892 21.053 21.153 21.053 21.153l7.273 6.807 11.583-13.724-18.388-19.274 34.355-35.162c5.214-6.101 5.45-14.457.529-18.664z" fill="#CCC"/><path d="M177.75 363.756a211.137 211.137 0 0 0-4.579-3.101c-.144-2.256-.998-4.269-2.618-5.651-3.939-3.365-10.83-1.764-15.39 3.576-4.56 5.338-5.063 12.395-1.123 15.76 1.628 1.39 3.761 1.921 6.024 1.699.88 1.463 1.727 2.951 2.597 4.421-4.622 1.444-9.279.916-12.597-1.917-5.909-5.047-5.323-15.435 1.31-23.2 6.633-7.767 16.8-9.971 22.71-4.923 3.592 3.067 4.776 8.109 3.666 13.336z" fill="#454647"/><path d="M114.295 338.531c-1.886-1.556-3.052-3.784-3.282-6.273-.248-2.694.604-5.358 2.398-7.503l.659.553c-1.646 1.966-2.428 4.406-2.201 6.871.208 2.259 1.264 4.28 2.972 5.689l-.546.663z" fill="#333"/><path d="M362.905 314.669c.149-.145-37.775-38.053-37.775-38.053-5.344-5.519-13.409-6.379-18.014-1.923-4.604 4.457-4.004 12.544 1.34 18.063l34.996 31.479-17.047 20.102 11.882 12.425 6.778-7.158s16.271-16.134 19.56-22.127c3.288-5.995-1.869-12.664-1.72-12.808z" fill="#BBBBBC"/><path d="M333.099 348.914c-7.106-7.336-17.345-8.942-22.869-3.59-3.103 3.006-4.038 7.564-3.017 12.282 1.534-.716 3.084-1.407 4.611-2.134-.021-2.262.695-4.322 2.218-5.797 3.683-3.568 10.629-2.373 15.515 2.67 4.887 5.043 5.861 12.023 2.178 15.592-1.513 1.467-3.582 2.113-5.83 2.033a208.772 208.772 0 0 1-3.478 4.228c5.08 1.614 10.18.941 13.538-2.313 5.524-5.352 4.242-15.637-2.866-22.971z" fill="#454647"/><path d="M370.074 328.895l-.518-.688c.975-.734 1.576-1.881 1.738-3.316.321-2.828-1.084-6.494-3.668-9.567l.658-.553c2.772 3.296 4.217 7.116 3.865 10.218-.189 1.675-.907 3.025-2.075 3.906z" fill="#333"/></g><g id="Foot"><ellipse cx="337.167" cy="380.886" fill="#231F20" rx="26.527" ry="26.928" transform="matrix(0.8783 -0.4782 0.4782 0.8783 -141.0861 207.5958)"/><path d="M313.87 393.57c-7.111-13.061-2.446-29.329 10.42-36.334.214-.117.432-.222.647-.332-15.647.073-27.195 4.494-29.59 12.645-2.629 8.951 6.466 20.089 22.094 29.102a27.424 27.424 0 0 1-3.571-5.081z" fill="#BBBBBC"/><circle cx="339.201" cy="380.914" fill="#424143" r="16.016"/><path d="M165.748 360.688c-11.45-7.483-27.067-3.867-34.881 8.075-7.814 11.943-4.867 27.689 6.583 35.173 11.45 7.482 27.067 3.866 34.881-8.077s4.867-27.691-6.583-35.171z" fill="#231F20"/><path d="M191.807 375.084c-1.53-8.272-11.971-13.452-26.637-14.584.193.125.387.244.578.374 11.451 7.842 14.397 24.347 6.583 36.864a28.012 28.012 0 0 1-3.794 4.813c15.444-7.912 24.949-18.38 23.27-27.467z" fill="#CCC"/><circle cx="151.7" cy="382.634" fill="#424143" r="16.016"/></g><g id="Cable"><path d="M479.857 191.802h-18.063c-5.676 0-10.321 4.645-10.321 10.321v83.43c0 5.676 4.646 10.321 10.321 10.321h18.063c5.676 0 10.32-4.646 10.32-10.321v-83.43c.001-5.677-4.644-10.321-10.32-10.321z" fill="#8B8B8C"/><path d="M477.17 196.962h-12.041c-5.677 0-10.321 4.645-10.321 10.321v73.968c0 5.677 4.645 10.321 10.321 10.321h12.041c5.677 0 10.321-4.645 10.321-10.321v-73.968c0-5.676-4.644-10.321-10.321-10.321z" fill="#EAEAEA"/><ellipse cx="471.149" cy="215.885" fill="#C1C1C1" rx="12.901" ry="12.471"/><ellipse cx="471.149" cy="245.988" fill="#C1C1C1" rx="12.901" ry="12.471"/><ellipse cx="471.149" cy="276.091" fill="#C1C1C1" rx="12.901" ry="12.471"/><g fill="#383637"><ellipse cx="465.077" cy="215.885" rx="2.099" ry="1.828"/><ellipse cx="478.512" cy="215.885" rx="2.1" ry="1.828"/></g><g fill="#383637"><ellipse cx="465.077" cy="245.988" rx="2.099" ry="1.828"/><ellipse cx="478.512" cy="245.988" rx="2.1" ry="1.828"/></g><ellipse cx="471.149" cy="276.521" fill="#EAEAEA" rx="11.182" ry="10.321"/><ellipse cx="471.149" cy="276.521" fill="#231F20" rx="3.011" ry="3.226"/><path d="M471.459 274.454c-3.336.764-24.922 5.054-38.875 13.016-4.076 2.325-4.045-.151-4.086-.956-1.052-20.938-2.591-40.405-18.747-49.291-9.335-5.134-13.017-11.405-15.975-16.443-2.374-4.043-4.424-7.536-8.569-8.687-2.584-.718-3.85-3.011-5.316-5.666-2.044-3.704-4.588-8.314-11.511-8.603-5.856-.244-12.076-6.011-16.617-10.222-3.36-3.115-5.21-4.832-7.126-4.832-.572 0-1.188-.574-2.135-1.52-1.238-1.239-2.78-2.78-5.176-2.78v4.3c.573 0 1.188.575 2.136 1.521 1.208 1.208 2.702 2.703 4.997 2.777.764.335 2.763 2.188 4.38 3.688 5.031 4.665 11.923 11.056 19.361 11.365 4.507.188 6.016 2.922 7.927 6.384 1.688 3.061 3.604 6.53 7.93 7.731 2.354.653 3.748 2.866 6.012 6.721 3.055 5.203 7.238 12.33 17.609 18.034 14.672 8.07 15.631 27.54 16.645 48.153.055 1.103.109 2.207.166 3.313.046.892 2.697 3.151 4.413 2.011 9.636-6.405 29.963-12.719 43.518-15.823l-.961-4.191z" fill="#302C2D"/><path d="M332.453 174.17v14.191c3.215 0 5.82-3.177 5.82-7.096s-2.605-7.095-5.82-7.095z" fill="#AAA"/><ellipse cx="481.608" cy="232.461" fill="#818285" rx="0.978" ry="1.401" transform="matrix(-0.4405 -0.8977 0.8977 -0.4405 485.0693 767.2255)"/><path fill="#595A5C" d="M481.251 231.643l-.349.22 1.063 1.416.349-.22z"/><path d="M463.586 231.782c-.316-.719-1.1-1.147-1.747-.956-.649.192-.919.931-.604 1.65.316.72 1.1 1.147 1.748.955.65-.191.92-.93.603-1.649z" fill="#818285"/><path fill="#595A5C" d="M463.279 231.483l-1.955.925.219.367 1.956-.925z"/><path d="M473.008 260.753c-.415-.608-1.325-.938-2.035-.733-.709.205-.948.864-.533 1.475.414.609 1.325.938 2.034.733.709-.205.948-.864.534-1.475z" fill="#818285"/><path fill="#595A5C" d="M472.64 260.511l-2.109.919.277.307 2.108-.919z"/><path fill="#D2D3D4" d="M324.189 169.224h9.031v23.223h-9.031z"/><g><ellipse cx="328.727" cy="180.835" fill="#818285" rx="1.201" ry="1.044"/><path fill="#595A5C" d="M328.188 180.025l-.266.219 1.343 1.402.265-.219z"/></g><path d="M324.189 169.224v12.026h14.084c-.006-3.594-2.206-6.553-5.053-7.012v-5.014h-9.031z" fill="#191818" opacity="0.1"/></g><g id="Head"><path d="M237.49 135.16c-.041-.884-.847-22.314 7.541-28.09 2.702-1.86 6.061-1.939 9.982-.234l-.343.789c-3.632-1.579-6.71-1.527-9.151.154-7.999 5.508-7.158 27.17-7.148 27.381h-.881z" fill="#2B2929"/><path d="M313.869 134.833H171.367c-5.677 0-10.321 4.645-10.321 10.321v91.83c0 5.677 4.644 10.321 10.321 10.321h142.502c5.677 0 10.32-4.645 10.32-10.321v-91.83c0-5.676-4.643-10.321-10.32-10.321z" fill="#DD5952"/><ellipse cx="171.527" cy="143.72" fill="#818285" rx="6.165" ry="5.362"/><path fill="#595A5C" d="M168.761 139.557l-1.365 1.125 6.898 7.2 1.364-1.125z"/><ellipse cx="314.091" cy="143.477" fill="#818285" rx="6.165" ry="5.363"/><path fill="#595A5C" d="M311.323 139.314l-1.364 1.125 6.898 7.201 1.364-1.126z"/><ellipse cx="311.761" cy="239.035" fill="#818285" rx="6.165" ry="5.363"/><path fill="#595A5C" d="M308.994 234.872l-1.365 1.125 6.898 7.2 1.364-1.125z"/><ellipse cx="253.654" cy="106.915" fill="#4CD3D3" rx="6.068" ry="4.743" transform="matrix(0.2018 -0.9794 0.9794 0.2018 97.7465 333.7713)"/><path d="M280.13 188.361h-70.528c-5.677 0-10.321 4.645-10.321 10.321v32.684c0 5.677 4.645 10.321 10.321 10.321h70.528c5.677 0 10.321-4.645 10.321-10.321v-32.684c0-5.676-4.644-10.321-10.321-10.321z" fill="#4CD3D3"/><path fill="#166DF9" opacity="0.8" d="M207.021 196.962h12.901v38.705h-12.901z"/><path fill="#166DF9" opacity="0.7" d="M223.363 196.962h12.901v38.705h-12.901z"/><path fill="#166DF9" opacity="0.7" d="M239.705 196.962h12.901v38.705h-12.901z"/><path fill="#FCEE23" d="M259.315 215.447l-15.482-1.043 4.015-13.564-12.616 16.173 16.056.521-17.775 15.13z"/><path fill="#166DF9" opacity="0.7" d="M256.047 196.962h12.902v38.705h-12.902z"/><path fill="#166DF9" opacity="0.7" d="M271.529 209.02h12.901v15.394h-12.901z"/><path fill="#818182" d="M298.661 165.639l-8.056 10.98-16.18.053-8.125-10.927 8.054-10.98 16.18-.054z"/><path fill="#4CD3D3" d="M288.207 172.957l-6.019-2.774-5.918 2.49 1.031-5.547-4.906-4.063 6.658-.654 2.885-5 3.083 5.142 6.689.972-4.751 3.832z"/><path fill="#1C1C1C" opacity="0.1" d="M282.092 154.739v21.907l8.513-.027 8.056-10.98-8.127-10.928z"/><g><ellipse cx="173.068" cy="238.036" fill="#818285" rx="6.164" ry="5.362"/><path fill="#595A5C" d="M170.302 233.873l-1.364 1.125 6.897 7.2 1.364-1.125z"/></g><g><path fill="#818182" d="M220.84 165.708l-8.054 10.98-16.181.054-8.126-10.928 8.054-10.98 16.181-.053z"/><path fill="#4CD3D3" d="M210.387 173.026l-6.02-2.773-5.918 2.489 1.031-5.546-4.906-4.063 6.658-.654 2.885-5 3.083 5.142 6.69.972-4.752 3.832z"/><path fill="#1C1C1C" opacity="0.1" d="M204.271 154.809v21.907l8.515-.028 8.054-10.98-8.126-10.927z"/></g><path d="M314.365 134.833H243.77v112.473h70.595c5.404 0 9.824-4.645 9.824-10.321v-91.83c0-5.677-4.419-10.322-9.824-10.322z" fill="#191818" opacity="0.1"/></g><metadata><rdf:RDF xmlns:rdf="http://www.w3.org/1999/02/22-rdf-syntax-ns#" xmlns:rdfs="http://www.w3.org/2000/01/rdf-schema#" xmlns:dc="http://purl.org/dc/elements/1.1/"><rdf:Description about="https://iconscout.com/legal#licenses" dc:title="android,mascot,mechanical,metal,robot,charge" dc:description="android,mascot,mechanical,metal,robot,charge" dc:publisher="Iconscout" dc:date="2017-09-15" dc:format="image/svg+xml" dc:language="en"><dc:creator><rdf:Bag><rdf:li>Graphiqa Stock</rdf:li></rdf:Bag></dc:creator></rdf:Description></rdf:RDF></metadata></svg>