<svg id="SvgjsSvg1001" width="288" height="288" xmlns="http://www.w3.org/2000/svg" version="1.1" xmlns:xlink="http://www.w3.org/1999/xlink" xmlns:svgjs="http://svgjs.com/svgjs"><defs id="SvgjsDefs1002"></defs><g id="SvgjsG1008" transform="matrix(0.9167,0,0,0.9167,11.995200000000011,11.995200000000011)"><!--?xml version="1.0" encoding="UTF-8"?--><svg xmlns="http://www.w3.org/2000/svg" xmlns:xlink="http://www.w3.org/1999/xlink" height="288" version="1.0" viewBox="0 0 110 110" width="288" xml:space="preserve"><g id="Multicolor" fill="#000000" class="color000 svgShape" data-darkreader-inline-fill="" style="--darkreader-inline-fill:#000000;"><circle cx="55" cy="55" r="55" fill="#84dbff" class="colorE04F5F svgShape" data-darkreader-inline-fill="" style="--darkreader-inline-fill:#00587d;"></circle><path fill="#fcf6c2" d="M59 34L27 46v25l24 12 32-12V46z" class="colorFCF6C2 svgShape" data-darkreader-inline-fill="" style="--darkreader-inline-fill:#534b04;"></path><path fill="#f3b607" d="M83 71L51 83V58l32-12z" class="colorF3B607 svgShape" data-darkreader-inline-fill="" style="--darkreader-inline-fill:#c29106;"></path><path fill="#facb1b" d="M27 71l24 12V58L27 46z" class="colorFACB1B svgShape" data-darkreader-inline-fill="" style="--darkreader-inline-fill:#b89204;"></path><path d="M59 48v4c0 1.1-2.69 2-6 2s-6-.9-6-2v-4c0 1.1 2.69 2 6 2s6-.9 6-2z" fill="#f3b607" class="colorF3B607 svgShape" data-darkreader-inline-fill="" style="--darkreader-inline-fill:#f9c93e;"></path><path d="M53 46c-3.31 0-6 .9-6 2s2.69 2 6 2 6-.9 6-2-2.69-2-6-2z" fill="#fcf6c2" class="colorFCF6C2 svgShape" data-darkreader-inline-fill="" style="--darkreader-inline-fill:#fcf6c2;"></path><path d="M47 42v4c0 1.1-2.69 2-6 2s-6-.9-6-2v-4c0 1.1 2.69 2 6 2s6-.9 6-2z" fill="#f3b607" class="colorF3B607 svgShape" data-darkreader-inline-fill="" style="--darkreader-inline-fill:#f9c93e;"></path><path d="M41 40c-3.31 0-6 .9-6 2s2.69 2 6 2 6-.9 6-2-2.69-2-6-2z" fill="#fcf6c2" class="colorFCF6C2 svgShape" data-darkreader-inline-fill="" style="--darkreader-inline-fill:#fcf6c2;"></path><path d="M63 36v4c0 1.1-2.69 2-6 2s-6-.9-6-2v-4c0 1.1 2.69 2 6 2s6-.9 6-2z" fill="#f3b607" class="colorF3B607 svgShape" data-darkreader-inline-fill="" style="--darkreader-inline-fill:#f9c93e;"></path><path d="M57 34c-3.31 0-6 .9-6 2s2.69 2 6 2 6-.9 6-2-2.69-2-6-2z" fill="#fcf6c2" class="colorFCF6C2 svgShape" data-darkreader-inline-fill="" style="--darkreader-inline-fill:#fcf6c2;"></path><path d="M75 42v4c0 1.1-2.69 2-6 2s-6-.9-6-2v-4c0 1.1 2.69 2 6 2s6-.9 6-2z" fill="#f3b607" class="colorF3B607 svgShape" data-darkreader-inline-fill="" style="--darkreader-inline-fill:#f9c93e;"></path><path d="M69 40c-3.31 0-6 .9-6 2s2.69 2 6 2 6-.9 6-2-2.69-2-6-2z" fill="#fcf6c2" class="colorFCF6C2 svgShape" data-darkreader-inline-fill="" style="--darkreader-inline-fill:#fcf6c2;"></path></g><metadata><rdf:rdf xmlns:rdf="http://www.w3.org/1999/02/22-rdf-syntax-ns#" xmlns:rdfs="http://www.w3.org/2000/01/rdf-schema#" xmlns:dc="http://purl.org/dc/elements/1.1/"><rdf:description about="https://iconscout.com/legal#licenses" dc:title="programming" dc:description="programming" dc:publisher="Iconscout" dc:date="2017-09-19" dc:format="image/svg+xml" dc:language="en"><dc:creator><rdf:bag><rdf:li>Vincent Le Moign</rdf:li></rdf:bag></dc:creator></rdf:description></rdf:rdf></metadata></svg></g></svg>