<?xml version="1.0" encoding="UTF-8"?>
<svg width="54px" height="54px" viewBox="0 0 54 54" version="1.1" xmlns="http://www.w3.org/2000/svg" xmlns:xlink="http://www.w3.org/1999/xlink">
    <!-- Generator: Sketch 53 (72520) - https://sketchapp.com -->
    <title>Instagram_White</title>
    <desc>Created with Sketch.</desc>
    <g id="Page-2" stroke="none" stroke-width="1" fill="none" fill-rule="evenodd">
        <g id="Desktop-HD-Copy" transform="translate(-179.000000, -911.000000)" fill="#FFFFFF">
            <g id="Instagram" transform="translate(179.000000, 911.000000)">
                <path d="M0,27 C0,12.088311 12.088311,0 27,0 C41.911689,0 54,12.088311 54,27 C54,41.911689 41.911689,54 27,54 C12.088311,54 0,41.911689 0,27 Z M27.00135,12.6 C23.0905093,12.6 22.5997042,12.6171002 21.0636882,12.6870009 C19.5306722,12.7572016 18.4842613,12.9999042 17.5686518,13.3560079 C16.6215419,13.7238117 15.8181335,14.2158168 15.0177252,15.0165252 C14.2167168,15.8169335 13.7247117,16.6203419 13.3557079,17.5671517 C12.9987042,18.4830613 12.7557016,19.5297722 12.6867009,21.0621881 C12.6180002,22.5982041 12.6,23.0893093 12.6,27.00015 C12.6,30.9109907 12.6174002,31.4002958 12.6870009,32.9363118 C12.7575016,34.4693278 13.0002042,35.5157387 13.3560079,36.4313482 C13.7241117,37.3784581 14.2161168,38.1818665 15.0168252,38.9822748 C15.8169335,39.7832832 16.6203419,40.2764883 17.5668517,40.6442921 C18.4830613,41.0003958 19.5297722,41.2430984 21.0624882,41.3132991 C22.5985042,41.3831998 23.0890093,41.4003 26.99955,41.4003 C30.9106907,41.4003 31.3999958,41.3831998 32.9360118,41.3132991 C34.4690278,41.2430984 35.5166387,41.0003958 36.4328483,40.6442921 C37.3796581,40.2764883 38.1818665,39.7832832 38.9819748,38.9822748 C39.7829832,38.1818665 40.2749883,37.3784581 40.6439921,36.4316482 C40.9979958,35.5157387 41.2409983,34.4690278 41.3129991,32.9366118 C41.3819998,31.4005958 41.4,30.9109907 41.4,27.00015 C41.4,23.0893093 41.3819998,22.5985042 41.3129991,21.0624882 C41.2409983,19.5294722 40.9979958,18.4830613 40.6439921,17.5674517 C40.2749883,16.6203419 39.7829832,15.8169335 38.9819748,15.0165252 C38.1809665,14.2155168 37.3799581,13.7235117 36.4319482,13.3560079 C35.5139387,12.9999042 34.4669278,12.7572016 32.9339118,12.6870009 C31.3978958,12.6171002 30.9088907,12.6 26.99685,12.6 L27.00135,12.6 Z" id="Combined-Shape"></path>
                <path d="M25.7095366,15.195027 C26.0929406,15.194427 26.520745,15.195027 27.00135,15.195027 C30.8461901,15.195027 31.3018948,15.2088272 32.8202106,15.2778279 C34.2242253,15.3420286 34.9862332,15.576631 35.4938385,15.7737331 C36.1658455,16.0347358 36.6449505,16.346739 37.1486557,16.8507443 C37.652661,17.3547495 37.9646642,17.8347545 38.2262669,18.5067615 C38.423369,19.0137668 38.6582714,19.7757747 38.7221721,21.1797894 C38.7911728,22.6978052 38.806173,23.1538099 38.806173,26.99685 C38.806173,30.83989 38.7911728,31.2958947 38.7221721,32.8139106 C38.6579714,34.2179252 38.423369,34.9799331 38.2262669,35.4869384 C37.9652642,36.1589454 37.652661,36.6374504 37.1486557,37.1411556 C36.6446505,37.6451609 36.1661455,37.9571641 35.4938385,38.2181669 C34.9868332,38.4161689 34.2242253,38.6501714 32.8202106,38.714372 C31.3021948,38.7833727 30.8461901,38.7983729 27.00135,38.7983729 C23.15621,38.7983729 22.7005052,38.7833727 21.1824894,38.714372 C19.7784748,38.6495713 19.0164668,38.4149689 18.5085615,38.2178669 C17.8365545,37.9568641 17.3565495,37.6448609 16.8525443,37.1408556 C16.348539,36.6368504 16.0365358,36.1580454 15.7749331,35.4857384 C15.577831,34.9787331 15.3429286,34.2167252 15.2790279,32.8127105 C15.2100272,31.2946947 15.196227,30.83869 15.196227,26.9932499 C15.196227,23.1478099 15.2100272,22.6942051 15.2790279,21.1761893 C15.3432286,19.7721747 15.577831,19.0101668 15.7749331,18.5025615 C16.0359358,17.8305545 16.348539,17.3505495 16.8525443,16.8465442 C17.3565495,16.342539 17.8365545,16.0305357 18.5085615,15.768933 C19.0161668,15.5709309 19.7784748,15.3369285 21.1824894,15.2724278 C22.5109032,15.2124272 23.0257086,15.194427 25.7095366,15.191427 L25.7095366,15.195027 Z M34.6880301,17.5860519 C33.7340201,17.5860519 32.9600121,18.35916 32.9600121,19.3134699 C32.9600121,20.2674799 33.7340201,21.0414879 34.6880301,21.0414879 C35.64204,21.0414879 36.4160481,20.2674799 36.4160481,19.3134699 C36.4160481,18.35946 35.64204,17.5854519 34.6880301,17.5854519 L34.6880301,17.5860519 Z M27.00135,19.605073 C22.9174075,19.605073 19.606273,22.9162075 19.606273,27.00015 C19.606273,31.0840925 22.9174075,34.393727 27.00135,34.393727 C31.0852926,34.393727 34.395227,31.0840925 34.395227,27.00015 C34.395227,22.9162075 31.0849926,19.605073 27.00105,19.605073 L27.00135,19.605073 Z" id="Combined-Shape"></path>
                <path d="M27.00135,22.2001 C29.6521776,22.2001 31.8014,24.3490224 31.8014,27.00015 C31.8014,29.6509776 29.6521776,31.8002 27.00135,31.8002 C24.3502224,31.8002 22.2013,29.6509776 22.2013,27.00015 C22.2013,24.3490224 24.3502224,22.2001 27.00135,22.2001 L27.00135,22.2001 Z" id="Shape"></path>
            </g>
        </g>
    </g>
</svg>